<mxfile host="app.diagrams.net" modified="2023-09-13T09:37:18.736Z" agent="Mozilla/5.0 (X11; Linux x86_64) AppleWebKit/537.36 (KHTML, like Gecko) Chrome/110.0.0.0 Safari/537.36" etag="kQ0zmerK9Tu6Uh0UbE_l" version="21.7.5" type="github">
  <diagram id="6a731a19-8d31-9384-78a2-239565b7b9f0" name="Page-1">
    <mxGraphModel dx="846" dy="753" grid="0" gridSize="10" guides="1" tooltips="1" connect="1" arrows="1" fold="1" page="0" pageScale="1" pageWidth="1169" pageHeight="827" background="none" math="0" shadow="0">
      <root>
        <mxCell id="0" />
        <mxCell id="1" parent="0" />
        <mxCell id="1350" value="CHAT" style="ellipse;whiteSpace=wrap;html=1;shadow=0;fontFamily=Helvetica;fontSize=16;fontColor=#FFFFFF;align=center;strokeWidth=3;fillColor=#1699D3;strokeColor=none;fontStyle=1" parent="1" vertex="1">
          <mxGeometry x="840" y="611" width="120" height="120" as="geometry" />
        </mxCell>
        <mxCell id="1356" value="CHANNEL OWNER" style="ellipse;whiteSpace=wrap;html=1;shadow=0;fontFamily=Helvetica;fontSize=16;fontColor=#FFFFFF;align=center;strokeWidth=3;fillColor=#E85642;strokeColor=none;fontStyle=1" parent="1" vertex="1">
          <mxGeometry x="673" y="984" width="120" height="120" as="geometry" />
        </mxCell>
        <mxCell id="1359" style="endArrow=none;strokeWidth=6;strokeColor=#1699D3;html=1;curved=1;" parent="1" source="1515" target="1350" edge="1">
          <mxGeometry relative="1" as="geometry">
            <Array as="points">
              <mxPoint x="910" y="759" />
            </Array>
          </mxGeometry>
        </mxCell>
        <mxCell id="1363" style="endArrow=none;strokeWidth=6;strokeColor=#2D7600;html=1;fillColor=#60a917;curved=1;" parent="1" source="1515" target="1516" edge="1">
          <mxGeometry relative="1" as="geometry">
            <Array as="points">
              <mxPoint x="923" y="906" />
            </Array>
          </mxGeometry>
        </mxCell>
        <mxCell id="1366" value="" style="edgeStyle=none;endArrow=none;strokeWidth=6;strokeColor=#E85642;html=1;curved=1;" parent="1" source="1516" target="1356" edge="1">
          <mxGeometry x="181" y="226.5" width="100" height="100" as="geometry">
            <mxPoint x="277" y="329.5" as="sourcePoint" />
            <mxPoint x="377" y="229.5" as="targetPoint" />
            <Array as="points">
              <mxPoint x="768" y="940" />
            </Array>
          </mxGeometry>
        </mxCell>
        <mxCell id="1368" value="invite to play" style="rounded=1;fillColor=#64BBE2;strokeColor=none;strokeWidth=3;shadow=0;html=1;fontColor=#FFFFFF;" parent="1" vertex="1">
          <mxGeometry x="621" y="730" width="130" height="40" as="geometry" />
        </mxCell>
        <mxCell id="1369" value="see other&#39;s profile" style="rounded=1;fillColor=#64BBE2;strokeColor=none;strokeWidth=3;shadow=0;html=1;fontColor=#FFFFFF;" parent="1" vertex="1">
          <mxGeometry x="621" y="682" width="130" height="40" as="geometry" />
        </mxCell>
        <mxCell id="1370" value="block user" style="rounded=1;fillColor=#64BBE2;strokeColor=none;strokeWidth=3;shadow=0;html=1;fontColor=#FFFFFF;" parent="1" vertex="1">
          <mxGeometry x="621" y="635" width="130" height="40" as="geometry" />
        </mxCell>
        <mxCell id="1371" value="send private message" style="rounded=1;fillColor=#64BBE2;strokeColor=none;strokeWidth=3;shadow=0;html=1;fontColor=#FFFFFF;" parent="1" vertex="1">
          <mxGeometry x="621" y="587" width="130" height="40" as="geometry" />
        </mxCell>
        <mxCell id="1372" value="send message in channel" style="rounded=1;fillColor=#64BBE2;strokeColor=none;strokeWidth=3;shadow=0;html=1;fontColor=#FFFFFF;" parent="1" vertex="1">
          <mxGeometry x="621" y="540" width="157" height="40" as="geometry" />
        </mxCell>
        <mxCell id="1373" value="create new channel" style="rounded=1;fillColor=#64BBE2;strokeColor=none;strokeWidth=3;shadow=0;html=1;fontColor=#FFFFFF;" parent="1" vertex="1">
          <mxGeometry x="621" y="492" width="130" height="40" as="geometry" />
        </mxCell>
        <mxCell id="1380" value="" style="edgeStyle=none;endArrow=none;strokeWidth=3;strokeColor=#64BBE2;html=1;entryX=1;entryY=0.5;entryDx=0;entryDy=0;exitX=0.064;exitY=0.302;exitDx=0;exitDy=0;exitPerimeter=0;curved=1;" parent="1" source="1350" target="1368" edge="1">
          <mxGeometry x="-221.5" y="56.5" width="100" height="100" as="geometry">
            <mxPoint x="-221.5" y="156.5" as="sourcePoint" />
            <mxPoint x="-121.5" y="56.5" as="targetPoint" />
            <Array as="points">
              <mxPoint x="811" y="736" />
            </Array>
          </mxGeometry>
        </mxCell>
        <mxCell id="1381" value="" style="edgeStyle=none;endArrow=none;strokeWidth=3;strokeColor=#64BBE2;html=1;entryX=1;entryY=0.5;entryDx=0;entryDy=0;curved=1;" parent="1" target="1369" edge="1">
          <mxGeometry x="-221.5" y="56.5" width="100" height="100" as="geometry">
            <mxPoint x="844" y="647" as="sourcePoint" />
            <mxPoint x="-121.5" y="56.5" as="targetPoint" />
            <Array as="points">
              <mxPoint x="800" y="686" />
            </Array>
          </mxGeometry>
        </mxCell>
        <mxCell id="1382" value="" style="edgeStyle=none;endArrow=none;strokeWidth=3;strokeColor=#64BBE2;html=1;curved=1;" parent="1" target="1370" edge="1">
          <mxGeometry x="-221.5" y="56.5" width="100" height="100" as="geometry">
            <mxPoint x="848" y="646" as="sourcePoint" />
            <mxPoint x="-121.5" y="56.5" as="targetPoint" />
            <Array as="points">
              <mxPoint x="799" y="660" />
            </Array>
          </mxGeometry>
        </mxCell>
        <mxCell id="1383" value="" style="edgeStyle=none;endArrow=none;strokeWidth=3;strokeColor=#64BBE2;html=1;entryX=1;entryY=0.5;entryDx=0;entryDy=0;curved=1;" parent="1" target="1371" edge="1">
          <mxGeometry x="-221.5" y="56.5" width="100" height="100" as="geometry">
            <mxPoint x="848" y="647" as="sourcePoint" />
            <mxPoint x="-121.5" y="56.5" as="targetPoint" />
            <Array as="points">
              <mxPoint x="791" y="643" />
            </Array>
          </mxGeometry>
        </mxCell>
        <mxCell id="1384" value="" style="edgeStyle=none;endArrow=none;strokeWidth=3;strokeColor=#64BBE2;html=1;entryX=1;entryY=0.5;entryDx=0;entryDy=0;exitX=0.035;exitY=0.304;exitDx=0;exitDy=0;exitPerimeter=0;curved=1;" parent="1" source="1350" target="1372" edge="1">
          <mxGeometry x="-221.5" y="56.5" width="100" height="100" as="geometry">
            <mxPoint x="-221.5" y="156.5" as="sourcePoint" />
            <mxPoint x="-121.5" y="56.5" as="targetPoint" />
            <Array as="points">
              <mxPoint x="812" y="640" />
              <mxPoint x="800" y="563" />
            </Array>
          </mxGeometry>
        </mxCell>
        <mxCell id="1385" value="" style="edgeStyle=none;endArrow=none;strokeWidth=3;strokeColor=#64BBE2;html=1;entryX=1;entryY=0.5;entryDx=0;entryDy=0;curved=1;exitX=0.065;exitY=0.285;exitDx=0;exitDy=0;exitPerimeter=0;" parent="1" source="1350" target="1373" edge="1">
          <mxGeometry x="-221.5" y="56.5" width="100" height="100" as="geometry">
            <mxPoint x="-221.5" y="156.5" as="sourcePoint" />
            <mxPoint x="-121.5" y="56.5" as="targetPoint" />
            <Array as="points">
              <mxPoint x="812" y="623" />
              <mxPoint x="809" y="500" />
            </Array>
          </mxGeometry>
        </mxCell>
        <mxCell id="1495" value="set channel password" style="rounded=1;fillColor=#f08e81;strokeColor=none;strokeWidth=3;shadow=0;html=1;fontColor=#FFFFFF;flipV=0;" parent="1" vertex="1">
          <mxGeometry x="454" y="1001" width="120" height="40" as="geometry" />
        </mxCell>
        <mxCell id="1496" value="change password" style="rounded=1;fillColor=#f08e81;strokeColor=none;strokeWidth=3;shadow=0;html=1;fontColor=#FFFFFF;flipV=0;" parent="1" vertex="1">
          <mxGeometry x="454" y="1048" width="120" height="40" as="geometry" />
        </mxCell>
        <mxCell id="1497" value="remove password" style="rounded=1;fillColor=#f08e81;strokeColor=none;strokeWidth=3;shadow=0;html=1;fontColor=#FFFFFF;flipV=0;" parent="1" vertex="1">
          <mxGeometry x="454" y="1095" width="120" height="40" as="geometry" />
        </mxCell>
        <mxCell id="1508" value="" style="edgeStyle=none;endArrow=none;strokeWidth=3;strokeColor=#F08E81;html=1;exitX=0;exitY=0.5;exitDx=0;exitDy=0;entryX=1;entryY=0.5;entryDx=0;entryDy=0;curved=1;" parent="1" source="1356" target="1495" edge="1">
          <mxGeometry x="188.5" y="51.5" width="100" height="100" as="geometry">
            <mxPoint x="586.7005487260649" y="1013.9015943667159" as="sourcePoint" />
            <mxPoint x="298" y="-173.5" as="targetPoint" />
            <Array as="points">
              <mxPoint x="600" y="1047" />
            </Array>
          </mxGeometry>
        </mxCell>
        <mxCell id="1509" value="" style="edgeStyle=none;endArrow=none;strokeWidth=3;strokeColor=#F08E81;html=1;exitX=0;exitY=0.5;exitDx=0;exitDy=0;entryX=1;entryY=0.5;entryDx=0;entryDy=0;curved=1;" parent="1" source="1356" target="1496" edge="1">
          <mxGeometry x="188.5" y="51.5" width="100" height="100" as="geometry">
            <mxPoint x="592.0014680276158" y="1034.0980081451771" as="sourcePoint" />
            <mxPoint x="298" y="-173.5" as="targetPoint" />
            <Array as="points">
              <mxPoint x="620" y="1066" />
            </Array>
          </mxGeometry>
        </mxCell>
        <mxCell id="1510" value="" style="edgeStyle=none;endArrow=none;strokeWidth=3;strokeColor=#F08E81;html=1;entryX=1;entryY=0.5;entryDx=0;entryDy=0;curved=1;" parent="1" target="1497" edge="1">
          <mxGeometry x="188.5" y="51.5" width="100" height="100" as="geometry">
            <mxPoint x="671" y="1044" as="sourcePoint" />
            <mxPoint x="303.5" y="-116.5" as="targetPoint" />
            <Array as="points">
              <mxPoint x="608" y="1076" />
            </Array>
          </mxGeometry>
        </mxCell>
        <mxCell id="1515" value="USER" style="ellipse;whiteSpace=wrap;html=1;shadow=0;fontFamily=Helvetica;fontSize=30;fontColor=#2F5B7C;align=center;strokeColor=#2F5B7C;strokeWidth=6;fillColor=#FFFFFF;fontStyle=1;gradientColor=none;" parent="1" vertex="1">
          <mxGeometry x="931" y="726" width="170" height="170" as="geometry" />
        </mxCell>
        <mxCell id="1516" value="ADMIN" style="ellipse;whiteSpace=wrap;html=1;shadow=0;fontFamily=Helvetica;fontSize=16;align=center;strokeWidth=3;fillColor=#d5e8d4;strokeColor=#82b366;fontStyle=1" parent="1" vertex="1">
          <mxGeometry x="774" y="839" width="120" height="120" as="geometry" />
        </mxCell>
        <mxCell id="1517" value="ser User as Admin" style="rounded=1;fillColor=#d5e8d4;strokeColor=#82b366;strokeWidth=3;shadow=0;html=1;" parent="1" vertex="1">
          <mxGeometry x="580" y="786" width="120" height="40" as="geometry" />
        </mxCell>
        <mxCell id="1522" value="kick User" style="rounded=1;fillColor=#d5e8d4;strokeColor=#82b366;strokeWidth=3;shadow=0;html=1;" parent="1" vertex="1">
          <mxGeometry x="580" y="835" width="120" height="40" as="geometry" />
        </mxCell>
        <mxCell id="1527" value="mute User" style="rounded=1;fillColor=#d5e8d4;strokeColor=#82b366;strokeWidth=3;shadow=0;html=1;" parent="1" vertex="1">
          <mxGeometry x="580" y="934" width="120" height="40" as="geometry" />
        </mxCell>
        <mxCell id="1528" value="" style="edgeStyle=none;endArrow=none;strokeWidth=3;strokeColor=#82b366;html=1;fillColor=#d5e8d4;entryX=1;entryY=0.5;entryDx=0;entryDy=0;curved=1;exitX=0.02;exitY=0.54;exitDx=0;exitDy=0;exitPerimeter=0;" parent="1" source="1516" target="1517" edge="1">
          <mxGeometry x="-1498" y="-303.5" width="100" height="100" as="geometry">
            <mxPoint x="-1170" y="-108" as="sourcePoint" />
            <mxPoint x="-1070" y="-208" as="targetPoint" />
            <Array as="points">
              <mxPoint x="748" y="827" />
            </Array>
          </mxGeometry>
        </mxCell>
        <mxCell id="1529" value="ban User" style="rounded=1;fillColor=#d5e8d4;strokeColor=#82b366;strokeWidth=3;shadow=0;html=1;" parent="1" vertex="1">
          <mxGeometry x="580" y="885" width="120" height="40" as="geometry" />
        </mxCell>
        <mxCell id="1534" value="" style="edgeStyle=none;endArrow=none;strokeWidth=3;strokeColor=#82b366;html=1;fillColor=#d5e8d4;entryX=1;entryY=0.5;entryDx=0;entryDy=0;curved=1;exitX=0.006;exitY=0.54;exitDx=0;exitDy=0;exitPerimeter=0;" parent="1" source="1516" target="1522" edge="1">
          <mxGeometry x="-1498" y="-303.5" width="100" height="100" as="geometry">
            <mxPoint x="-1170" y="-108" as="sourcePoint" />
            <mxPoint x="-1070" y="-208" as="targetPoint" />
            <Array as="points">
              <mxPoint x="744" y="862" />
            </Array>
          </mxGeometry>
        </mxCell>
        <mxCell id="1539" value="" style="edgeStyle=none;endArrow=none;strokeWidth=3;strokeColor=#82b366;html=1;fillColor=#d5e8d4;entryX=1;entryY=0.5;entryDx=0;entryDy=0;curved=1;" parent="1" source="1516" target="1527" edge="1">
          <mxGeometry x="-1498" y="-303.5" width="100" height="100" as="geometry">
            <mxPoint x="-1170" y="-108" as="sourcePoint" />
            <mxPoint x="-1070" y="-208" as="targetPoint" />
            <Array as="points">
              <mxPoint x="733" y="912" />
            </Array>
          </mxGeometry>
        </mxCell>
        <mxCell id="1540" value="" style="edgeStyle=none;endArrow=none;strokeWidth=3;strokeColor=#82b366;html=1;fillColor=#d5e8d4;curved=1;exitX=0.001;exitY=0.54;exitDx=0;exitDy=0;exitPerimeter=0;" parent="1" source="1516" target="1529" edge="1">
          <mxGeometry x="-1498" y="-303.5" width="100" height="100" as="geometry">
            <mxPoint x="-1170" y="-108" as="sourcePoint" />
            <mxPoint x="-1070" y="-208" as="targetPoint" />
            <Array as="points">
              <mxPoint x="736" y="896" />
            </Array>
          </mxGeometry>
        </mxCell>
        <mxCell id="1542" style="edgeStyle=none;rounded=0;html=1;exitX=0.5;exitY=1;endArrow=none;endFill=0;jettySize=auto;orthogonalLoop=1;strokeColor=#82b366;strokeWidth=2;fillColor=#d5e8d4;fontSize=20;fontColor=#23445D;" parent="1" source="1529" target="1529" edge="1">
          <mxGeometry relative="1" as="geometry" />
        </mxCell>
        <mxCell id="U_JDzgncAyJ7v2yDqkH5-1543" style="edgeStyle=orthogonalEdgeStyle;rounded=0;orthogonalLoop=1;jettySize=auto;html=1;exitX=0.5;exitY=1;exitDx=0;exitDy=0;" edge="1" parent="1" source="1372" target="1372">
          <mxGeometry relative="1" as="geometry" />
        </mxCell>
        <mxCell id="U_JDzgncAyJ7v2yDqkH5-1544" value="ACCOUNT" style="ellipse;whiteSpace=wrap;html=1;shadow=0;fontFamily=Helvetica;fontSize=16;fontColor=#FFFFFF;align=center;strokeWidth=3;fillColor=#1699D3;strokeColor=none;fontStyle=1" vertex="1" parent="1">
          <mxGeometry x="1147" y="634" width="120" height="120" as="geometry" />
        </mxCell>
        <mxCell id="U_JDzgncAyJ7v2yDqkH5-1545" style="endArrow=none;strokeWidth=6;strokeColor=#1699D3;html=1;exitX=1;exitY=0;exitDx=0;exitDy=0;curved=1;" edge="1" parent="1" target="U_JDzgncAyJ7v2yDqkH5-1544" source="1515">
          <mxGeometry relative="1" as="geometry">
            <mxPoint x="1077" y="757" as="sourcePoint" />
            <Array as="points">
              <mxPoint x="1119" y="694" />
            </Array>
          </mxGeometry>
        </mxCell>
        <mxCell id="U_JDzgncAyJ7v2yDqkH5-1546" value="enable 2FA" style="rounded=1;fillColor=#64BBE2;strokeColor=none;strokeWidth=3;shadow=0;html=1;fontColor=#FFFFFF;" vertex="1" parent="1">
          <mxGeometry x="1343" y="636" width="130" height="40" as="geometry" />
        </mxCell>
        <mxCell id="U_JDzgncAyJ7v2yDqkH5-1547" value="change avatar" style="rounded=1;fillColor=#64BBE2;strokeColor=none;strokeWidth=3;shadow=0;html=1;fontColor=#FFFFFF;" vertex="1" parent="1">
          <mxGeometry x="1343" y="586" width="130" height="40" as="geometry" />
        </mxCell>
        <mxCell id="U_JDzgncAyJ7v2yDqkH5-1548" value="change username" style="rounded=1;fillColor=#64BBE2;strokeColor=none;strokeWidth=3;shadow=0;html=1;fontColor=#FFFFFF;" vertex="1" parent="1">
          <mxGeometry x="1343" y="536" width="130" height="40" as="geometry" />
        </mxCell>
        <mxCell id="U_JDzgncAyJ7v2yDqkH5-1552" value="" style="edgeStyle=none;endArrow=none;strokeWidth=3;strokeColor=#64BBE2;html=1;entryX=0;entryY=0.5;entryDx=0;entryDy=0;curved=1;" edge="1" parent="1" target="U_JDzgncAyJ7v2yDqkH5-1546">
          <mxGeometry x="-221.5" y="56.5" width="100" height="100" as="geometry">
            <mxPoint x="1264" y="675" as="sourcePoint" />
            <mxPoint x="537.5" y="149.5" as="targetPoint" />
            <Array as="points">
              <mxPoint x="1308" y="675" />
            </Array>
          </mxGeometry>
        </mxCell>
        <mxCell id="U_JDzgncAyJ7v2yDqkH5-1553" value="" style="edgeStyle=none;endArrow=none;strokeWidth=3;strokeColor=#64BBE2;html=1;entryX=0;entryY=0.5;entryDx=0;entryDy=0;exitX=0.985;exitY=0.35;exitDx=0;exitDy=0;exitPerimeter=0;curved=1;" edge="1" parent="1" source="U_JDzgncAyJ7v2yDqkH5-1544" target="U_JDzgncAyJ7v2yDqkH5-1547">
          <mxGeometry x="-221.5" y="56.5" width="100" height="100" as="geometry">
            <mxPoint x="1269" y="676" as="sourcePoint" />
            <mxPoint x="537.5" y="149.5" as="targetPoint" />
            <Array as="points">
              <mxPoint x="1316" y="651" />
            </Array>
          </mxGeometry>
        </mxCell>
        <mxCell id="U_JDzgncAyJ7v2yDqkH5-1554" value="" style="edgeStyle=none;endArrow=none;strokeWidth=3;strokeColor=#64BBE2;html=1;entryX=0;entryY=0.5;entryDx=0;entryDy=0;exitX=0.981;exitY=0.359;exitDx=0;exitDy=0;exitPerimeter=0;curved=1;" edge="1" parent="1" source="U_JDzgncAyJ7v2yDqkH5-1544" target="U_JDzgncAyJ7v2yDqkH5-1548">
          <mxGeometry x="-221.5" y="56.5" width="100" height="100" as="geometry">
            <mxPoint x="437.5" y="249.5" as="sourcePoint" />
            <mxPoint x="537.5" y="149.5" as="targetPoint" />
            <Array as="points">
              <mxPoint x="1315" y="627" />
            </Array>
          </mxGeometry>
        </mxCell>
        <mxCell id="U_JDzgncAyJ7v2yDqkH5-1558" style="edgeStyle=orthogonalEdgeStyle;rounded=0;orthogonalLoop=1;jettySize=auto;html=1;exitX=0.5;exitY=1;exitDx=0;exitDy=0;" edge="1" parent="1">
          <mxGeometry relative="1" as="geometry">
            <mxPoint x="1439.5" y="551" as="sourcePoint" />
            <mxPoint x="1439.5" y="551" as="targetPoint" />
          </mxGeometry>
        </mxCell>
        <mxCell id="U_JDzgncAyJ7v2yDqkH5-1559" value="FRIEND Management" style="ellipse;whiteSpace=wrap;html=1;shadow=0;fontFamily=Helvetica;fontSize=16;fontColor=#FFFFFF;align=center;strokeWidth=3;fillColor=#1699D3;strokeColor=none;fontStyle=1" vertex="1" parent="1">
          <mxGeometry x="1213" y="776" width="120" height="120" as="geometry" />
        </mxCell>
        <mxCell id="U_JDzgncAyJ7v2yDqkH5-1560" style="endArrow=none;strokeWidth=6;strokeColor=#1699D3;html=1;exitX=1;exitY=0.5;exitDx=0;exitDy=0;curved=1;" edge="1" parent="1" target="U_JDzgncAyJ7v2yDqkH5-1559" source="1515">
          <mxGeometry relative="1" as="geometry">
            <mxPoint x="1080" y="927" as="sourcePoint" />
            <Array as="points">
              <mxPoint x="1160" y="843" />
            </Array>
          </mxGeometry>
        </mxCell>
        <mxCell id="U_JDzgncAyJ7v2yDqkH5-1561" value="remove friend" style="rounded=1;fillColor=#64BBE2;strokeColor=none;strokeWidth=3;shadow=0;html=1;fontColor=#FFFFFF;" vertex="1" parent="1">
          <mxGeometry x="1381" y="864" width="130" height="40" as="geometry" />
        </mxCell>
        <mxCell id="U_JDzgncAyJ7v2yDqkH5-1562" value="accept friend request" style="rounded=1;fillColor=#64BBE2;strokeColor=none;strokeWidth=3;shadow=0;html=1;fontColor=#FFFFFF;" vertex="1" parent="1">
          <mxGeometry x="1381" y="814" width="130" height="40" as="geometry" />
        </mxCell>
        <mxCell id="U_JDzgncAyJ7v2yDqkH5-1563" value="add friend" style="rounded=1;fillColor=#64BBE2;strokeColor=none;strokeWidth=3;shadow=0;html=1;fontColor=#FFFFFF;" vertex="1" parent="1">
          <mxGeometry x="1381" y="764" width="130" height="40" as="geometry" />
        </mxCell>
        <mxCell id="U_JDzgncAyJ7v2yDqkH5-1564" value="" style="edgeStyle=none;endArrow=none;strokeWidth=3;strokeColor=#64BBE2;html=1;exitX=1;exitY=0.5;exitDx=0;exitDy=0;entryX=0;entryY=0.5;entryDx=0;entryDy=0;curved=1;" edge="1" parent="1" source="U_JDzgncAyJ7v2yDqkH5-1559" target="U_JDzgncAyJ7v2yDqkH5-1561">
          <mxGeometry x="-221.5" y="56.5" width="100" height="100" as="geometry">
            <mxPoint x="441.5" y="425.5" as="sourcePoint" />
            <mxPoint x="541.5" y="325.5" as="targetPoint" />
            <Array as="points">
              <mxPoint x="1371" y="847" />
            </Array>
          </mxGeometry>
        </mxCell>
        <mxCell id="U_JDzgncAyJ7v2yDqkH5-1565" value="" style="edgeStyle=none;endArrow=none;strokeWidth=3;strokeColor=#64BBE2;html=1;" edge="1" parent="1" source="U_JDzgncAyJ7v2yDqkH5-1559" target="U_JDzgncAyJ7v2yDqkH5-1562">
          <mxGeometry x="-221.5" y="56.5" width="100" height="100" as="geometry">
            <mxPoint x="441.5" y="425.5" as="sourcePoint" />
            <mxPoint x="541.5" y="325.5" as="targetPoint" />
          </mxGeometry>
        </mxCell>
        <mxCell id="U_JDzgncAyJ7v2yDqkH5-1566" value="" style="edgeStyle=none;endArrow=none;strokeWidth=3;strokeColor=#64BBE2;html=1;entryX=0;entryY=0.5;entryDx=0;entryDy=0;curved=1;" edge="1" parent="1" target="U_JDzgncAyJ7v2yDqkH5-1563">
          <mxGeometry x="-221.5" y="56.5" width="100" height="100" as="geometry">
            <mxPoint x="1335" y="834" as="sourcePoint" />
            <mxPoint x="541.5" y="325.5" as="targetPoint" />
            <Array as="points">
              <mxPoint x="1370" y="830" />
            </Array>
          </mxGeometry>
        </mxCell>
        <mxCell id="U_JDzgncAyJ7v2yDqkH5-1567" style="edgeStyle=orthogonalEdgeStyle;rounded=0;orthogonalLoop=1;jettySize=auto;html=1;exitX=0.5;exitY=1;exitDx=0;exitDy=0;" edge="1" parent="1">
          <mxGeometry relative="1" as="geometry">
            <mxPoint x="1477.5" y="779" as="sourcePoint" />
            <mxPoint x="1477.5" y="779" as="targetPoint" />
          </mxGeometry>
        </mxCell>
        <mxCell id="U_JDzgncAyJ7v2yDqkH5-1568" value="PLAYER PROFILE" style="ellipse;whiteSpace=wrap;html=1;shadow=0;fontFamily=Helvetica;fontSize=16;fontColor=#FFFFFF;align=center;strokeWidth=3;fillColor=#1699D3;strokeColor=none;fontStyle=1" vertex="1" parent="1">
          <mxGeometry x="1074" y="975" width="120" height="120" as="geometry" />
        </mxCell>
        <mxCell id="U_JDzgncAyJ7v2yDqkH5-1569" style="endArrow=none;strokeWidth=6;strokeColor=#1699D3;html=1;exitX=1;exitY=1;exitDx=0;exitDy=0;curved=1;" edge="1" parent="1" target="U_JDzgncAyJ7v2yDqkH5-1568" source="1515">
          <mxGeometry relative="1" as="geometry">
            <mxPoint x="1022" y="993" as="sourcePoint" />
            <Array as="points">
              <mxPoint x="1080" y="950" />
            </Array>
          </mxGeometry>
        </mxCell>
        <mxCell id="U_JDzgncAyJ7v2yDqkH5-1570" value="match history" style="rounded=1;fillColor=#64BBE2;strokeColor=none;strokeWidth=3;shadow=0;html=1;fontColor=#FFFFFF;" vertex="1" parent="1">
          <mxGeometry x="1281" y="1091" width="130" height="40" as="geometry" />
        </mxCell>
        <mxCell id="U_JDzgncAyJ7v2yDqkH5-1571" value="stats" style="rounded=1;fillColor=#64BBE2;strokeColor=none;strokeWidth=3;shadow=0;html=1;fontColor=#FFFFFF;" vertex="1" parent="1">
          <mxGeometry x="1281" y="1046" width="130" height="40" as="geometry" />
        </mxCell>
        <mxCell id="U_JDzgncAyJ7v2yDqkH5-1572" value="connection status" style="rounded=1;fillColor=#64BBE2;strokeColor=none;strokeWidth=3;shadow=0;html=1;fontColor=#FFFFFF;" vertex="1" parent="1">
          <mxGeometry x="1283" y="1001" width="130" height="40" as="geometry" />
        </mxCell>
        <mxCell id="U_JDzgncAyJ7v2yDqkH5-1573" value="" style="edgeStyle=none;endArrow=none;strokeWidth=3;strokeColor=#64BBE2;html=1;entryX=0;entryY=0.5;entryDx=0;entryDy=0;curved=1;exitX=0.964;exitY=0.761;exitDx=0;exitDy=0;exitPerimeter=0;" edge="1" parent="1" source="U_JDzgncAyJ7v2yDqkH5-1568" target="U_JDzgncAyJ7v2yDqkH5-1570">
          <mxGeometry x="-221.5" y="56.5" width="100" height="100" as="geometry">
            <mxPoint x="341.5" y="652.5" as="sourcePoint" />
            <mxPoint x="441.5" y="552.5" as="targetPoint" />
            <Array as="points">
              <mxPoint x="1246" y="1082" />
            </Array>
          </mxGeometry>
        </mxCell>
        <mxCell id="U_JDzgncAyJ7v2yDqkH5-1574" value="" style="edgeStyle=none;endArrow=none;strokeWidth=3;strokeColor=#64BBE2;html=1;exitX=0.964;exitY=0.744;exitDx=0;exitDy=0;exitPerimeter=0;curved=1;" edge="1" parent="1" source="U_JDzgncAyJ7v2yDqkH5-1568" target="U_JDzgncAyJ7v2yDqkH5-1571">
          <mxGeometry x="-221.5" y="56.5" width="100" height="100" as="geometry">
            <mxPoint x="341.5" y="652.5" as="sourcePoint" />
            <mxPoint x="441.5" y="552.5" as="targetPoint" />
            <Array as="points">
              <mxPoint x="1242" y="1070" />
            </Array>
          </mxGeometry>
        </mxCell>
        <mxCell id="U_JDzgncAyJ7v2yDqkH5-1575" value="" style="edgeStyle=none;endArrow=none;strokeWidth=3;strokeColor=#64BBE2;html=1;exitX=0.975;exitY=0.717;exitDx=0;exitDy=0;exitPerimeter=0;entryX=0;entryY=0.5;entryDx=0;entryDy=0;curved=1;" edge="1" parent="1" source="U_JDzgncAyJ7v2yDqkH5-1568" target="U_JDzgncAyJ7v2yDqkH5-1572">
          <mxGeometry x="-221.5" y="56.5" width="100" height="100" as="geometry">
            <mxPoint x="341.5" y="652.5" as="sourcePoint" />
            <mxPoint x="441.5" y="552.5" as="targetPoint" />
            <Array as="points">
              <mxPoint x="1250" y="1056" />
            </Array>
          </mxGeometry>
        </mxCell>
        <mxCell id="U_JDzgncAyJ7v2yDqkH5-1576" style="edgeStyle=orthogonalEdgeStyle;rounded=0;orthogonalLoop=1;jettySize=auto;html=1;exitX=0.5;exitY=1;exitDx=0;exitDy=0;" edge="1" parent="1">
          <mxGeometry relative="1" as="geometry">
            <mxPoint x="1377.5" y="1006" as="sourcePoint" />
            <mxPoint x="1377.5" y="1006" as="targetPoint" />
          </mxGeometry>
        </mxCell>
        <mxCell id="U_JDzgncAyJ7v2yDqkH5-1578" value="LOGIN" style="rounded=1;fillColor=#64BBE2;strokeColor=none;strokeWidth=3;shadow=0;html=1;fontColor=#FFFFFF;fontStyle=1;fontSize=16;" vertex="1" parent="1">
          <mxGeometry x="1069" y="483" width="130" height="40" as="geometry" />
        </mxCell>
        <mxCell id="U_JDzgncAyJ7v2yDqkH5-1579" style="endArrow=none;strokeWidth=6;strokeColor=#1699D3;html=1;exitX=0.5;exitY=0;exitDx=0;exitDy=0;entryX=0;entryY=0.5;entryDx=0;entryDy=0;curved=1;" edge="1" parent="1" source="1515" target="U_JDzgncAyJ7v2yDqkH5-1578">
          <mxGeometry relative="1" as="geometry">
            <mxPoint x="1086" y="761" as="sourcePoint" />
            <mxPoint x="1162" y="728" as="targetPoint" />
            <Array as="points">
              <mxPoint x="1016" y="512" />
            </Array>
          </mxGeometry>
        </mxCell>
        <mxCell id="U_JDzgncAyJ7v2yDqkH5-1580" value="LOGOUT" style="rounded=1;fillColor=#64BBE2;strokeColor=none;strokeWidth=3;shadow=0;html=1;fontColor=#FFFFFF;fontStyle=1;fontSize=16;" vertex="1" parent="1">
          <mxGeometry x="1087" y="540" width="130" height="40" as="geometry" />
        </mxCell>
        <mxCell id="U_JDzgncAyJ7v2yDqkH5-1581" style="endArrow=none;strokeWidth=6;strokeColor=#1699D3;html=1;entryX=0;entryY=0.5;entryDx=0;entryDy=0;curved=1;" edge="1" parent="1" target="U_JDzgncAyJ7v2yDqkH5-1580">
          <mxGeometry relative="1" as="geometry">
            <mxPoint x="1015" y="725" as="sourcePoint" />
            <mxPoint x="1079" y="533" as="targetPoint" />
            <Array as="points">
              <mxPoint x="1027" y="556" />
            </Array>
          </mxGeometry>
        </mxCell>
        <mxCell id="U_JDzgncAyJ7v2yDqkH5-1582" value="PLAY PONG" style="rounded=1;fillColor=#64BBE2;strokeColor=none;strokeWidth=3;shadow=0;html=1;fontColor=#FFFFFF;fontStyle=1;fontSize=16;" vertex="1" parent="1">
          <mxGeometry x="855" y="1041" width="130" height="40" as="geometry" />
        </mxCell>
        <mxCell id="U_JDzgncAyJ7v2yDqkH5-1583" style="endArrow=none;strokeWidth=6;strokeColor=#1699D3;html=1;exitX=1;exitY=0.5;exitDx=0;exitDy=0;entryX=0.562;entryY=0.992;entryDx=0;entryDy=0;entryPerimeter=0;curved=1;" edge="1" parent="1" target="1515" source="U_JDzgncAyJ7v2yDqkH5-1582">
          <mxGeometry relative="1" as="geometry">
            <mxPoint x="855" y="1272" as="sourcePoint" />
            <mxPoint x="1001" y="1274" as="targetPoint" />
            <Array as="points">
              <mxPoint x="1075" y="1108" />
            </Array>
          </mxGeometry>
        </mxCell>
        <mxCell id="U_JDzgncAyJ7v2yDqkH5-1584" value="LEAVE THE QUEUE" style="rounded=1;fillColor=#64BBE2;strokeColor=none;strokeWidth=3;shadow=0;html=1;fontColor=#FFFFFF;fontStyle=1;fontSize=16;" vertex="1" parent="1">
          <mxGeometry x="835" y="1089" width="170" height="40" as="geometry" />
        </mxCell>
        <mxCell id="U_JDzgncAyJ7v2yDqkH5-1585" style="endArrow=none;strokeWidth=6;strokeColor=#1699D3;html=1;exitX=1;exitY=0.5;exitDx=0;exitDy=0;curved=1;" edge="1" parent="1" source="U_JDzgncAyJ7v2yDqkH5-1584">
          <mxGeometry relative="1" as="geometry">
            <mxPoint x="854" y="1271" as="sourcePoint" />
            <mxPoint x="1027" y="899" as="targetPoint" />
            <Array as="points">
              <mxPoint x="1074" y="1109" />
            </Array>
          </mxGeometry>
        </mxCell>
        <mxCell id="U_JDzgncAyJ7v2yDqkH5-1587" value="SEE FRIENDS CONNECTIONS STATUS" style="rounded=1;fillColor=#64BBE2;strokeColor=none;strokeWidth=3;shadow=0;html=1;fontColor=#FFFFFF;fontStyle=1;fontSize=16;" vertex="1" parent="1">
          <mxGeometry x="1217" y="930" width="350" height="40" as="geometry" />
        </mxCell>
        <mxCell id="U_JDzgncAyJ7v2yDqkH5-1588" style="endArrow=none;strokeWidth=6;strokeColor=#1699D3;html=1;exitX=0.978;exitY=0.701;exitDx=0;exitDy=0;exitPerimeter=0;entryX=0;entryY=0.5;entryDx=0;entryDy=0;curved=1;" edge="1" parent="1" source="1515" target="U_JDzgncAyJ7v2yDqkH5-1587">
          <mxGeometry relative="1" as="geometry">
            <mxPoint x="1155" y="881" as="sourcePoint" />
            <mxPoint x="1225" y="1019" as="targetPoint" />
            <Array as="points">
              <mxPoint x="1162" y="942" />
            </Array>
          </mxGeometry>
        </mxCell>
      </root>
    </mxGraphModel>
  </diagram>
</mxfile>
